<?xml version="1.0" encoding="utf-8"?>
<!-- Generator: Adobe Illustrator 23.0.3, SVG Export Plug-In . SVG Version: 6.00 Build 0)  -->
<svg version="1.1" id="Layer_1" xmlns="http://www.w3.org/2000/svg" xmlns:xlink="http://www.w3.org/1999/xlink" x="0px" y="0px"
	 viewBox="0 0 125 125" style="enable-background:new 0 0 125 125;" xml:space="preserve">
<style type="text/css">
	.st0{fill:#00599C;}
	.st1{fill:#004482;}
	.st2{fill:#659AD2;}
	.st3{fill:#FFFFFF;}
</style>
<path class="st0" d="M112.9,91.6c0.8-1.4,1.3-3,1.3-4.4V37.8c0-1.4-0.5-3-1.3-4.4L62.5,62.5L112.9,91.6z"/>
<path class="st1" d="M67,119.6l42.7-24.7c1.2-0.7,2.3-1.9,3.2-3.3L62.5,62.5L12.1,91.6c0.8,1.4,1.9,2.6,3.2,3.3L58,119.6
	C60.5,121,64.5,121,67,119.6z"/>
<path class="st2" d="M112.9,33.4c-0.8-1.4-1.9-2.6-3.2-3.3L67,5.4c-2.5-1.4-6.5-1.4-9,0L15.3,30.1c-2.5,1.4-4.5,4.9-4.5,7.8v49.3
	c0,1.4,0.5,3,1.3,4.4l50.4-29.1L112.9,33.4z"/>
<g>
	<path class="st3" d="M62.5,97C43.5,97,28,81.5,28,62.5S43.5,28,62.5,28c12.3,0,23.7,6.6,29.8,17.2l-14.9,8.6
		c-3.1-5.3-8.8-8.6-14.9-8.6c-9.5,0-17.2,7.7-17.2,17.2c0,9.5,7.7,17.2,17.2,17.2c6.1,0,11.9-3.3,14.9-8.6l14.9,8.6
		C86.2,90.4,74.8,97,62.5,97z"/>
</g>
<g>
	<polygon class="st3" points="97,60.6 93.1,60.6 93.1,56.8 89.3,56.8 89.3,60.6 85.5,60.6 85.5,64.4 89.3,64.4 89.3,68.2 93.1,68.2 
		93.1,64.4 97,64.4 	"/>
</g>
<g>
	<polygon class="st3" points="111.3,60.6 107.5,60.6 107.5,56.8 103.7,56.8 103.7,60.6 99.8,60.6 99.8,64.4 103.7,64.4 103.7,68.2 
		107.5,68.2 107.5,64.4 111.3,64.4 	"/>
</g>
</svg>
