<?xml version="1.0" encoding="utf-8"?>
<!-- Generator: Adobe Illustrator 23.0.3, SVG Export Plug-In . SVG Version: 6.00 Build 0)  -->
<svg version="1.1"
	 id="svg2" inkscape:version="0.43" sodipodi:docbase="/home/sdeibel" sodipodi:docname="logo-python-generic.svg" sodipodi:version="0.32" xmlns:cc="http://web.resource.org/cc/" xmlns:dc="http://purl.org/dc/elements/1.1/" xmlns:inkscape="http://www.inkscape.org/namespaces/inkscape" xmlns:rdf="http://www.w3.org/1999/02/22-rdf-syntax-ns#" xmlns:sodipodi="http://inkscape.sourceforge.net/DTD/sodipodi-0.dtd" xmlns:svg="http://www.w3.org/2000/svg"
	 xmlns="http://www.w3.org/2000/svg" xmlns:xlink="http://www.w3.org/1999/xlink" x="0px" y="0px" viewBox="0 0 125 125"
	 style="enable-background:new 0 0 125 125;" xml:space="preserve">
<style type="text/css">
	.st0{fill:url(#path1948_1_);}
	.st1{fill:url(#path1950_1_);}
</style>
<sodipodi:namedview  bordercolor="#666666" borderopacity="1.0" id="base" inkscape:current-layer="svg2" inkscape:cx="243.02499" inkscape:cy="71.887497" inkscape:pageopacity="0.0" inkscape:pageshadow="2" inkscape:window-height="543" inkscape:window-width="791" inkscape:window-x="0" inkscape:window-y="0" inkscape:zoom="1.4340089" pagecolor="#ffffff">
	</sodipodi:namedview>
<g id="g2303">
	
		<linearGradient id="path1948_1_" gradientUnits="userSpaceOnUse" x1="1165.2023" y1="-1837.4409" x2="1274.2185" y2="-1931.2349" gradientTransform="matrix(0.5625 0 0 -0.568 -651.194 -1034.1533)">
		<stop  offset="0" style="stop-color:#5A9FD4"/>
		<stop  offset="1" style="stop-color:#306998"/>
	</linearGradient>
	<path id="path1948" class="st0" d="M61.8,6.3c-4.6,0-9,0.4-12.8,1.1c-11.3,2-13.4,6.2-13.4,13.9v10.2h26.8v3.4H35.6H25.5
		c-7.8,0-14.6,4.7-16.8,13.6C6.3,58.8,6.2,65.1,8.8,75.8c1.9,7.9,6.5,13.6,14.3,13.6h9.2V77.1c0-8.8,7.7-16.7,16.7-16.7h26.8
		c7.5,0,13.4-6.1,13.4-13.6V21.3c0-7.3-6.1-12.7-13.4-13.9C71.2,6.6,66.4,6.3,61.8,6.3z M47.3,14.5c2.8,0,5,2.3,5,5.1
		s-2.3,5.1-5,5.1c-2.8,0-5-2.3-5-5.1S44.5,14.5,47.3,14.5z"/>
	
		<linearGradient id="path1950_1_" gradientUnits="userSpaceOnUse" x1="1316.3787" y1="-1988.0369" x2="1277.449" y2="-1932.9581" gradientTransform="matrix(0.5625 0 0 -0.568 -651.194 -1034.1533)">
		<stop  offset="0" style="stop-color:#FFD43B"/>
		<stop  offset="1" style="stop-color:#FFE873"/>
	</linearGradient>
	<path id="path1950" class="st1" d="M92.5,35v11.9c0,9.2-7.8,17-16.8,17H49c-7.3,0-13.4,6.3-13.4,13.6V103c0,7.3,6.3,11.5,13.4,13.6
		c8.5,2.5,16.6,2.9,26.8,0c6.8-2,13.4-5.9,13.4-13.6V92.8H62.4v-3.4h26.8h13.4c7.8,0,10.7-5.4,13.4-13.6c2.8-8.4,2.7-16.5,0-27.3
		c-1.9-7.8-5.6-13.6-13.4-13.6L92.5,35L92.5,35z M77.5,99.6c2.8,0,5,2.3,5,5.1c0,2.8-2.3,5.1-5,5.1c-2.8,0-5-2.3-5-5.1
		C72.4,101.9,74.7,99.6,77.5,99.6z"/>
</g>
</svg>
